<?xml version="1.0" standalone="no"?><!DOCTYPE svg PUBLIC "-//W3C//DTD SVG 1.1//EN" "http://www.w3.org/Graphics/SVG/1.1/DTD/svg11.dtd"><svg t="1711174480155" class="icon" viewBox="0 0 1024 1024" version="1.1" xmlns="http://www.w3.org/2000/svg" p-id="1473" xmlns:xlink="http://www.w3.org/1999/xlink" width="128" height="128"><path d="M242.090667 303.701333a175.232 175.232 0 1 1 350.464 0 175.232 175.232 0 0 1-350.464 0z m175.232-89.856a89.898667 89.898667 0 1 0 0 179.754667 89.898667 89.898667 0 0 0 0-179.754667zM638.464 168.106667a42.666667 42.666667 0 0 1 58.538667-14.549334 175.146667 175.146667 0 0 1 84.906666 150.186667c0 63.744-34.133333 119.509333-84.906666 150.101333a42.666667 42.666667 0 0 1-44.032-73.088 89.813333 89.813333 0 0 0 0-154.112 42.666667 42.666667 0 0 1-14.506667-58.581333zM460.8 545.066667H373.845333c-40.874667 0-74.154667 0-101.12 2.218666-27.946667 2.261333-52.906667 7.125333-76.117333 18.944A194.133333 194.133333 0 0 0 111.786667 651.093333c-11.818667 23.210667-16.682667 48.170667-18.944 76.074667-2.218667 26.965333-2.218667 60.245333-2.218667 101.12v24.533333a42.666667 42.666667 0 0 0 42.666667 42.666667h568.064a42.666667 42.666667 0 0 0 42.666666-42.666667v-24.490666c0-40.917333 0-74.197333-2.218666-101.205334-2.261333-27.861333-7.125333-52.821333-18.944-76.032a194.133333 194.133333 0 0 0-84.864-84.864c-23.210667-11.818667-48.128-16.64-76.032-18.944-27.008-2.218667-60.288-2.218667-101.162667-2.218666z m-272.981333 144.768c8.362667-19.2 38.485333-57.514667 91.818666-57.514667 23.125333-1.877333 52.906667-1.92 96-1.92h83.328c43.136 0 72.917333 0.042667 96 1.92 22.656 1.834667 35.114667 5.248 44.288 9.941333 5.546667 2.048 16.042667 8.149333 27.093334 19.541334 8.234667 8.106667 15.146667 17.578667 20.48 28.032 4.693333 9.173333 8.106667 21.632 9.941333 44.245333 1.578667 19.370667 1.877333 43.434667 1.92 76.074667H175.957333c0.042667-32.64 0.341333-56.704 1.92-76.074667 1.834667-22.613333 5.248-35.072 9.941334-44.245333zM787.882667 554.069333a42.666667 42.666667 0 0 1 59.733333-8.661333l0.042667 0.042667 0.042666 0.042666 0.170667 0.085334 0.298667 0.256 0.853333 0.682666c0.682667 0.554667 1.578667 1.237333 2.602667 2.133334 2.133333 1.706667 4.906667 4.096 8.192 7.168 6.528 6.144 15.146667 14.976 24.192 26.453333 17.92 22.869333 38.314667 57.344 45.525333 102.186667 3.584 22.4 3.370667 66.986667 2.688 101.205333a3004.330667 3004.330667 0 0 1-1.962667 62.421333l-0.170666 4.096-0.042667 1.493334a42.666667 42.666667 0 0 1-85.248-3.84l0.042667-1.365334 0.170666-3.925333a2702.336 2702.336 0 0 0 1.877334-60.586667c0.725333-37.12 0.512-72.832-1.621334-85.930666a138.368 138.368 0 0 0-28.416-63.061334 149.973333 149.973333 0 0 0-20.522666-21.333333m-8.448-59.562667a42.666667 42.666667 0 0 0 8.448 59.52z" fill="#ffffff" p-id="1474"></path></svg>