<?xml version="1.0" standalone="no"?><!DOCTYPE svg PUBLIC "-//W3C//DTD SVG 1.1//EN" "http://www.w3.org/Graphics/SVG/1.1/DTD/svg11.dtd"><svg t="1711175976632" class="icon" viewBox="0 0 1024 1024" version="1.1" xmlns="http://www.w3.org/2000/svg" p-id="7876" xmlns:xlink="http://www.w3.org/1999/xlink" width="128" height="128"><path d="M192 716.458667a106.325333 106.325333 0 0 0 58.660571 7.68 106.691048 106.691048 0 1 0-58.660571-203.264v-211.553524c0-17.65181 14.336-31.98781 32.01219-31.98781h166.204953a95.012571 95.012571 0 0 1-6.217143-32.01219 138.727619 138.727619 0 0 1 277.333333 0c0 10.288762-2.267429 21.065143-6.217143 32.01219h166.204953c17.67619 0 32.01219 14.336 32.01219 32.012191v575.975619c0 17.67619-14.336 32.01219-32.01219 32.01219h-597.333333a31.98781 31.98781 0 0 1-31.98781-32.01219v-168.862476z m379.562667-380.464762l28.355047-78.57981c2.31619-6.363429 2.755048-10.288762 2.755048-12.068571a79.993905 79.993905 0 0 0-160.012191 0c0 1.77981 0.438857 5.680762 2.755048 12.068571l28.355048 78.57981h-223.085715v118.101333a165.351619 165.351619 0 0 1 0 329.142857v75.434667h543.98781V335.969524h-223.085714z" p-id="7877" fill="#ffffff"></path></svg>